<svg width="40" height="40" viewBox="0 0 40 40" fill="none" xmlns="http://www.w3.org/2000/svg">
<g clip-path="url(#clip0_1_222)">
<path d="M36.25 0.9374H3.75C3.0126 0.929896 2.30233 1.21523 1.77506 1.73078C1.24778 2.24634 0.946566 2.95002 0.9375 3.6874V36.3187C0.948206 37.0549 1.25014 37.757 1.77724 38.2712C2.30434 38.7854 3.01367 39.0699 3.75 39.0624H36.25C36.9874 39.0682 37.6972 38.7819 38.2242 38.2661C38.7512 37.7502 39.0526 37.0467 39.0625 36.3093V3.67803C39.0493 2.9428 38.7465 2.24248 38.2199 1.72929C37.6932 1.2161 36.9853 0.931518 36.25 0.9374ZM12.2406 33.4374H6.58125V15.228H12.2406V33.4374ZM9.42813 12.7468C8.77902 12.7474 8.14432 12.5555 7.60431 12.1953C7.0643 11.8351 6.64325 11.3229 6.39442 10.7234C6.14559 10.1239 6.08016 9.46401 6.20642 8.8273C6.33267 8.1906 6.64493 7.60564 7.1037 7.14644C7.56247 6.68723 8.14712 6.37442 8.78371 6.24755C9.42029 6.12069 10.0802 6.18549 10.68 6.43375C11.2797 6.68201 11.7924 7.10257 12.153 7.64224C12.5137 8.1819 12.7062 8.81642 12.7063 9.46553C12.7054 9.89695 12.6195 10.324 12.4535 10.7222C12.2874 11.1204 12.0445 11.4819 11.7386 11.7861C11.4326 12.0903 11.0697 12.3312 10.6706 12.4949C10.2714 12.6587 9.84393 12.7422 9.4125 12.7405L9.42813 12.7468ZM33.4375 33.4374H27.7781V24.578C27.7781 22.4687 27.7406 19.753 24.8375 19.753C21.9344 19.753 21.4406 22.053 21.4406 24.4405V33.4374H15.7906V15.228H21.2156V17.728H21.2906C22.0469 16.2968 23.8906 14.7874 26.6438 14.7874C32.375 14.7749 33.4375 18.5468 33.4375 23.4374V33.4374Z" fill="#028EBA"/>
</g>
<defs>
<clipPath id="clip0_1_222">
<rect width="40" height="40" fill="white"/>
</clipPath>
</defs>
</svg>
