<svg width="250" height="58" viewBox="0 0 250 58" fill="none" xmlns="http://www.w3.org/2000/svg">
<path fill-rule="evenodd" clip-rule="evenodd" d="M27.6778 58.0001C42.9638 58.0001 55.3555 45.6346 55.3555 30.381C55.3555 15.1274 42.9638 2.76196 27.6778 2.76196C12.3918 2.76196 0 15.1274 0 30.381C0 45.6346 12.3918 58.0001 27.6778 58.0001Z" fill="url(#paint0_angular_1_139)"/>
<path fill-rule="evenodd" clip-rule="evenodd" d="M27.6778 58.0001C42.9638 58.0001 55.3555 45.6346 55.3555 30.381C55.3555 15.1274 42.9638 2.76196 27.6778 2.76196C12.3918 2.76196 0 15.1274 0 30.381C0 45.6346 12.3918 58.0001 27.6778 58.0001Z" fill="url(#paint1_angular_1_139)"/>
<g clip-path="url(#clip0_1_139)">
<path d="M14.9659 20.3913L36.8286 43.0852C37.5847 43.8678 40.4976 42.694 39.6858 41.8544L17.8151 19.1604C17.059 18.3779 14.1461 19.5517 14.9579 20.3913H14.9659Z" fill="#028EBA"/>
<path d="M17.2423 43.3217C24.8748 35.8875 32.4356 28.3881 39.9407 20.8153C40.4023 20.3506 40.275 19.8697 39.6463 19.6985C39.0175 19.5273 37.959 19.8045 37.4735 20.2936C29.9763 27.8664 22.4075 35.3739 14.7751 42.8082C14.3055 43.2728 14.4487 43.7537 15.0695 43.9249C15.7381 44.1043 16.7409 43.819 17.2423 43.3299V43.3217Z" fill="#028EBA"/>
<path d="M13.9792 32.5371C22.4474 32.5942 30.9155 32.6187 39.3837 32.635C40.0443 32.635 41.055 32.4149 41.4132 31.779C41.7713 31.1432 41.1107 30.8498 40.5775 30.8498C32.1093 30.8416 23.6412 30.809 15.1731 30.752C14.5204 30.752 13.5017 30.972 13.1436 31.6079C12.7854 32.2437 13.446 32.529 13.9792 32.5371Z" fill="#028EBA"/>
<path d="M29.0927 43.4685C29.2758 34.6159 29.3793 25.7551 29.4111 16.9026C29.4111 15.5983 26.339 16.2667 26.339 17.2938C26.3151 26.1546 26.2037 35.0072 26.0206 43.8597C25.9968 45.1558 29.0768 44.5037 29.0927 43.4685Z" fill="#028EBA"/>
</g>
<path d="M75.1878 34.394C73.4149 34.394 71.8881 33.9754 70.6076 33.1381C69.3272 32.3009 68.3422 31.1476 67.6527 29.6784C66.9632 28.2091 66.6184 26.5305 66.6184 24.6426C66.6184 22.7219 66.9714 21.0269 67.6773 19.5576C68.3914 18.0801 69.3846 16.9269 70.6569 16.0978C71.9374 15.2606 73.4313 14.842 75.1386 14.842C76.4683 14.842 77.6667 15.0882 78.7338 15.5807C79.8009 16.0732 80.675 16.7627 81.3563 17.6492C82.0376 18.5357 82.4603 19.5699 82.6245 20.7519H79.7188C79.4972 19.89 79.0047 19.1267 78.2413 18.4618C77.4861 17.7887 76.4683 17.4522 75.1878 17.4522C74.0551 17.4522 73.0619 17.7477 72.2082 18.3387C71.3628 18.9215 70.702 19.7464 70.226 20.8135C69.7581 21.8723 69.5242 23.1159 69.5242 24.5441C69.5242 26.0052 69.754 27.2775 70.2136 28.3609C70.6815 29.4444 71.3382 30.2858 72.1836 30.885C73.0373 31.4842 74.0387 31.7838 75.1878 31.7838C75.943 31.7838 76.6284 31.6524 77.244 31.3898C77.8596 31.1271 78.3808 30.7495 78.8077 30.257C79.2345 29.7646 79.5382 29.1736 79.7188 28.4841H82.6245C82.4603 29.6004 82.054 30.6059 81.4056 31.5006C80.7653 32.3871 79.9158 33.093 78.8569 33.6183C77.8063 34.1354 76.5832 34.394 75.1878 34.394ZM88.3911 8.78431V34H85.4854V8.78431H88.3911ZM92.3262 34V15.0882H95.232V34H92.3262ZM93.8037 11.9363C93.2374 11.9363 92.749 11.7434 92.3386 11.3576C91.9364 10.9718 91.7353 10.508 91.7353 9.9663C91.7353 9.42456 91.9364 8.96079 92.3386 8.575C92.749 8.18922 93.2374 7.99632 93.8037 7.99632C94.3701 7.99632 94.8544 8.18922 95.2566 8.575C95.667 8.96079 95.8722 9.42456 95.8722 9.9663C95.8722 10.508 95.667 10.9718 95.2566 11.3576C94.8544 11.7434 94.3701 11.9363 93.8037 11.9363ZM99.1671 34V15.0882H101.974V18.0432H102.221C102.615 17.0336 103.251 16.2497 104.129 15.6915C105.007 15.1252 106.062 14.842 107.293 14.842C108.541 14.842 109.579 15.1252 110.408 15.6915C111.246 16.2497 111.898 17.0336 112.366 18.0432H112.563C113.047 17.0664 113.774 16.2907 114.742 15.7162C115.711 15.1334 116.872 14.842 118.227 14.842C119.918 14.842 121.301 15.3714 122.376 16.4303C123.451 17.4809 123.989 19.1185 123.989 21.3429V34H121.083V21.3429C121.083 19.9475 120.701 18.9502 119.938 18.351C119.175 17.7518 118.276 17.4522 117.242 17.4522C115.912 17.4522 114.882 17.8544 114.151 18.6588C113.421 19.455 113.055 20.4646 113.055 21.6877V34H110.1V21.0474C110.1 19.9721 109.752 19.1062 109.054 18.4495C108.356 17.7846 107.457 17.4522 106.358 17.4522C105.602 17.4522 104.896 17.6533 104.24 18.0555C103.591 18.4577 103.066 19.0159 102.664 19.73C102.27 20.4359 102.073 21.2526 102.073 22.1801V34H99.1671ZM133.48 34.4432C132.281 34.4432 131.194 34.2175 130.217 33.7661C129.24 33.3064 128.465 32.6456 127.89 31.7838C127.316 30.9137 127.028 29.8631 127.028 28.6318C127.028 27.5483 127.242 26.67 127.668 25.997C128.095 25.3157 128.666 24.7822 129.38 24.3964C130.094 24.0106 130.882 23.7233 131.744 23.5345C132.614 23.3375 133.488 23.1816 134.366 23.0666C135.516 22.9189 136.447 22.8081 137.161 22.7342C137.884 22.6521 138.409 22.5167 138.737 22.3279C139.074 22.1391 139.242 21.8108 139.242 21.3429V21.2444C139.242 20.0296 138.91 19.0856 138.245 18.4126C137.588 17.7395 136.591 17.403 135.253 17.403C133.866 17.403 132.778 17.7067 131.99 18.3141C131.202 18.9215 130.648 19.5699 130.328 20.2594L127.57 19.2744C128.062 18.1253 128.719 17.2306 129.54 16.5903C130.369 15.9419 131.272 15.4904 132.249 15.236C133.234 14.9733 134.202 14.842 135.154 14.842C135.762 14.842 136.459 14.9159 137.247 15.0636C138.044 15.2031 138.811 15.4945 139.55 15.9378C140.297 16.381 140.917 17.05 141.409 17.9447C141.902 18.8394 142.148 20.0378 142.148 21.5399V34H139.242V31.439H139.094C138.897 31.8494 138.569 32.2886 138.109 32.7565C137.65 33.2243 137.038 33.6224 136.275 33.9508C135.511 34.2791 134.58 34.4432 133.48 34.4432ZM133.923 31.833C135.072 31.833 136.041 31.6073 136.829 31.1558C137.625 30.7044 138.224 30.1216 138.626 29.4075C139.037 28.6934 139.242 27.9423 139.242 27.1543V24.4949C139.119 24.6426 138.848 24.7781 138.429 24.9012C138.019 25.0161 137.543 25.1187 137.001 25.209C136.468 25.2911 135.946 25.3649 135.438 25.4306C134.937 25.4881 134.531 25.5373 134.219 25.5784C133.463 25.6769 132.758 25.8369 132.101 26.0585C131.452 26.2719 130.927 26.5962 130.525 27.0312C130.131 27.458 129.934 28.0408 129.934 28.7796C129.934 29.7892 130.307 30.5525 131.054 31.0697C131.81 31.5786 132.766 31.833 133.923 31.833ZM154.289 15.0882V17.5507H144.488V15.0882H154.289ZM147.345 10.5573H150.251V28.5826C150.251 29.4034 150.37 30.019 150.608 30.4294C150.854 30.8316 151.166 31.1025 151.543 31.242C151.929 31.3734 152.336 31.439 152.762 31.439C153.083 31.439 153.345 31.4226 153.55 31.3898C153.756 31.3487 153.92 31.3159 154.043 31.2913L154.634 33.9015C154.437 33.9754 154.162 34.0492 153.809 34.1231C153.456 34.2052 153.009 34.2462 152.467 34.2462C151.646 34.2462 150.842 34.0698 150.054 33.7168C149.274 33.3639 148.625 32.8262 148.108 32.1039C147.599 31.3816 147.345 30.4705 147.345 29.3706V10.5573ZM164.999 34.394C163.177 34.394 161.605 33.9918 160.284 33.1874C158.97 32.3748 157.956 31.242 157.242 29.7892C156.536 28.3281 156.184 26.629 156.184 24.6919C156.184 22.7547 156.536 21.0474 157.242 19.5699C157.956 18.0842 158.95 16.9269 160.222 16.0978C161.502 15.2606 162.996 14.842 164.704 14.842C165.689 14.842 166.661 15.0062 167.622 15.3345C168.582 15.6628 169.456 16.1963 170.244 16.9351C171.032 17.6656 171.66 18.6342 172.128 19.8408C172.596 21.0474 172.83 22.5331 172.83 24.2979V25.5291H158.252V23.0174H169.875C169.875 21.9503 169.661 20.9982 169.235 20.1609C168.816 19.3237 168.217 18.6629 167.437 18.1786C166.665 17.6943 165.754 17.4522 164.704 17.4522C163.546 17.4522 162.545 17.7395 161.699 18.3141C160.862 18.8804 160.218 19.6192 159.766 20.5303C159.315 21.4414 159.089 22.4182 159.089 23.4606V25.1351C159.089 26.5633 159.335 27.7741 159.828 28.7673C160.329 29.7522 161.022 30.5033 161.909 31.0204C162.795 31.5293 163.825 31.7838 164.999 31.7838C165.763 31.7838 166.452 31.6771 167.068 31.4637C167.691 31.242 168.229 30.9137 168.681 30.4787C169.132 30.0354 169.481 29.4855 169.727 28.8288L172.534 29.6168C172.239 30.569 171.742 31.4062 171.045 32.1285C170.347 32.8426 169.485 33.4008 168.459 33.803C167.433 34.197 166.28 34.394 164.999 34.394ZM191.91 34.394C190.138 34.394 188.611 33.9754 187.33 33.1381C186.05 32.3009 185.065 31.1476 184.375 29.6784C183.686 28.2091 183.341 26.5305 183.341 24.6426C183.341 22.7219 183.694 21.0269 184.4 19.5576C185.114 18.0801 186.107 16.9269 187.38 16.0978C188.66 15.2606 190.154 14.842 191.861 14.842C193.191 14.842 194.389 15.0882 195.456 15.5807C196.524 16.0732 197.398 16.7627 198.079 17.6492C198.76 18.5357 199.183 19.5699 199.347 20.7519H196.441C196.22 19.89 195.727 19.1267 194.964 18.4618C194.209 17.7887 193.191 17.4522 191.91 17.4522C190.778 17.4522 189.785 17.7477 188.931 18.3387C188.085 18.9215 187.425 19.7464 186.949 20.8135C186.481 21.8723 186.247 23.1159 186.247 24.5441C186.247 26.0052 186.477 27.2775 186.936 28.3609C187.404 29.4444 188.061 30.2858 188.906 30.885C189.76 31.4842 190.761 31.7838 191.91 31.7838C192.666 31.7838 193.351 31.6524 193.967 31.3898C194.582 31.1271 195.103 30.7495 195.53 30.257C195.957 29.7646 196.261 29.1736 196.441 28.4841H199.347C199.183 29.6004 198.777 30.6059 198.128 31.5006C197.488 32.3871 196.638 33.093 195.58 33.6183C194.529 34.1354 193.306 34.394 191.91 34.394ZM207.773 34.4432C206.575 34.4432 205.487 34.2175 204.51 33.7661C203.534 33.3064 202.758 32.6456 202.183 31.7838C201.609 30.9137 201.322 29.8631 201.322 28.6318C201.322 27.5483 201.535 26.67 201.962 25.997C202.389 25.3157 202.959 24.7822 203.673 24.3964C204.387 24.0106 205.175 23.7233 206.037 23.5345C206.907 23.3375 207.781 23.1816 208.66 23.0666C209.809 22.9189 210.74 22.8081 211.455 22.7342C212.177 22.6521 212.702 22.5167 213.031 22.3279C213.367 22.1391 213.535 21.8108 213.535 21.3429V21.2444C213.535 20.0296 213.203 19.0856 212.538 18.4126C211.881 17.7395 210.884 17.403 209.546 17.403C208.159 17.403 207.071 17.7067 206.283 18.3141C205.495 18.9215 204.941 19.5699 204.621 20.2594L201.863 19.2744C202.356 18.1253 203.012 17.2306 203.833 16.5903C204.662 15.9419 205.565 15.4904 206.542 15.236C207.527 14.9733 208.496 14.842 209.448 14.842C210.055 14.842 210.753 14.9159 211.541 15.0636C212.337 15.2031 213.104 15.4945 213.843 15.9378C214.59 16.381 215.21 17.05 215.702 17.9447C216.195 18.8394 216.441 20.0378 216.441 21.5399V34H213.535V31.439H213.388C213.191 31.8494 212.862 32.2886 212.403 32.7565C211.943 33.2243 211.331 33.6224 210.568 33.9508C209.805 34.2791 208.873 34.4432 207.773 34.4432ZM208.216 31.833C209.366 31.833 210.334 31.6073 211.122 31.1558C211.918 30.7044 212.518 30.1216 212.92 29.4075C213.33 28.6934 213.535 27.9423 213.535 27.1543V24.4949C213.412 24.6426 213.141 24.7781 212.723 24.9012C212.312 25.0161 211.836 25.1187 211.295 25.209C210.761 25.2911 210.24 25.3649 209.731 25.4306C209.23 25.4881 208.824 25.5373 208.512 25.5784C207.757 25.6769 207.051 25.8369 206.394 26.0585C205.746 26.2719 205.22 26.5962 204.818 27.0312C204.424 27.458 204.227 28.0408 204.227 28.7796C204.227 29.7892 204.601 30.5525 205.348 31.0697C206.103 31.5786 207.059 31.833 208.216 31.833ZM220.358 34V15.0882H223.165V17.9447H223.362C223.707 17.009 224.331 16.2497 225.233 15.6669C226.136 15.0841 227.154 14.7927 228.287 14.7927C228.5 14.7927 228.767 14.7968 229.087 14.805C229.407 14.8133 229.65 14.8256 229.814 14.842V17.797C229.715 17.7723 229.489 17.7354 229.137 17.6861C228.792 17.6287 228.426 17.6 228.041 17.6C227.121 17.6 226.301 17.7928 225.578 18.1786C224.864 18.5562 224.298 19.0815 223.879 19.7546C223.469 20.4195 223.264 21.1787 223.264 22.0324V34H220.358ZM239.225 34.394C237.403 34.394 235.831 33.9918 234.509 33.1874C233.196 32.3748 232.182 31.242 231.468 29.7892C230.762 28.3281 230.409 26.629 230.409 24.6919C230.409 22.7547 230.762 21.0474 231.468 19.5699C232.182 18.0842 233.175 16.9269 234.448 16.0978C235.728 15.2606 237.222 14.842 238.929 14.842C239.914 14.842 240.887 15.0062 241.847 15.3345C242.808 15.6628 243.682 16.1963 244.47 16.9351C245.258 17.6656 245.886 18.6342 246.354 19.8408C246.821 21.0474 247.055 22.5331 247.055 24.2979V25.5291H232.478V23.0174H244.1C244.1 21.9503 243.887 20.9982 243.46 20.1609C243.042 19.3237 242.442 18.6629 241.663 18.1786C240.891 17.6943 239.98 17.4522 238.929 17.4522C237.772 17.4522 236.77 17.7395 235.925 18.3141C235.088 18.8804 234.443 19.6192 233.992 20.5303C233.541 21.4414 233.315 22.4182 233.315 23.4606V25.1351C233.315 26.5633 233.561 27.7741 234.054 28.7673C234.554 29.7522 235.248 30.5033 236.134 31.0204C237.021 31.5293 238.051 31.7838 239.225 31.7838C239.988 31.7838 240.678 31.6771 241.293 31.4637C241.917 31.242 242.455 30.9137 242.906 30.4787C243.358 30.0354 243.706 29.4855 243.953 28.8288L246.76 29.6168C246.464 30.569 245.968 31.4062 245.27 32.1285C244.572 32.8426 243.711 33.4008 242.685 33.803C241.658 34.197 240.505 34.394 239.225 34.394Z" fill="black"/>
<path d="M164.827 52.8503V42.8487H170.953V44.0681H166.221V47.6826H170.198V48.8874H166.221V52.8503H164.827ZM176.127 52.9955C175.072 52.9955 174.249 52.8068 173.659 52.4294C173.078 52.0423 172.667 51.4713 172.425 50.7165C172.193 49.9519 172.077 49.0132 172.077 47.9003C172.077 46.7777 172.198 45.8342 172.439 45.0697C172.681 44.2955 173.093 43.7052 173.673 43.2987C174.264 42.8923 175.081 42.689 176.127 42.689C177.162 42.689 177.97 42.8923 178.551 43.2987C179.141 43.6955 179.557 44.281 179.799 45.0552C180.041 45.8294 180.162 46.7777 180.162 47.9003C180.162 49.0423 180.041 49.9955 179.799 50.76C179.567 51.5149 179.156 52.0761 178.565 52.4439C177.985 52.8116 177.172 52.9955 176.127 52.9955ZM176.127 51.7907C176.843 51.7907 177.385 51.6503 177.752 51.3697C178.13 51.089 178.386 50.6632 178.522 50.0923C178.657 49.5116 178.725 48.781 178.725 47.9003C178.725 47.039 178.657 46.3132 178.522 45.7229C178.386 45.1229 178.13 44.6681 177.752 44.3584C177.375 44.0487 176.833 43.8939 176.127 43.8939C175.41 43.8939 174.864 44.0487 174.486 44.3584C174.119 44.6681 173.862 45.1181 173.717 45.7084C173.581 46.2987 173.514 47.0294 173.514 47.9003C173.514 48.7519 173.581 49.4681 173.717 50.0487C173.852 50.6294 174.104 51.0649 174.472 51.3552C174.849 51.6455 175.401 51.7907 176.127 51.7907ZM185.564 52.9955C184.809 52.9955 184.161 52.8891 183.619 52.6761C183.087 52.4632 182.68 52.1197 182.399 51.6455C182.119 51.1713 181.979 50.5374 181.979 49.7439V42.8487H183.372V49.7874C183.372 50.4939 183.566 51.0068 183.953 51.3261C184.34 51.6358 184.877 51.7907 185.564 51.7907C186.29 51.7907 186.846 51.6358 187.233 51.3261C187.62 51.0068 187.814 50.4939 187.814 49.7874V42.8487H189.208V49.7439C189.208 50.5181 189.067 51.1471 188.787 51.631C188.506 52.1149 188.095 52.4632 187.553 52.6761C187.011 52.8891 186.348 52.9955 185.564 52.9955ZM191.407 52.8503V42.8487H193.701L197.301 51.2971H197.591V42.8487H198.985V52.8503H196.735L193.077 44.3874H192.801V52.8503H191.407ZM201.245 52.8503V42.8487H204.889C205.634 42.8487 206.253 42.9648 206.747 43.1971C207.25 43.4294 207.647 43.7584 207.937 44.1842C208.228 44.61 208.431 45.1229 208.547 45.7229C208.673 46.3132 208.736 46.9713 208.736 47.6971C208.736 48.4326 208.678 49.1148 208.561 49.7439C208.445 50.3632 208.242 50.91 207.952 51.3842C207.661 51.8487 207.27 52.2116 206.776 52.4729C206.282 52.7245 205.658 52.8503 204.903 52.8503H201.245ZM202.639 51.6455H204.874C205.378 51.6455 205.784 51.539 206.094 51.3261C206.413 51.1132 206.66 50.8229 206.834 50.4552C207.008 50.0874 207.129 49.6713 207.197 49.2068C207.265 48.7326 207.299 48.2294 207.299 47.6971C207.299 47.1745 207.265 46.6955 207.197 46.26C207.129 45.8148 207.008 45.4277 206.834 45.0987C206.66 44.7697 206.413 44.5181 206.094 44.3439C205.784 44.16 205.378 44.0681 204.874 44.0681H202.639V51.6455ZM209.76 52.8503L212.445 42.8487H215.218L217.903 52.8503H216.495L215.842 50.4552H211.806L211.153 52.8503H209.76ZM212.082 49.2648H215.58L214.187 44.01H213.476L212.082 49.2648ZM221.323 52.8503V44.0826H218.376V42.8487H225.634V44.0826H222.716V52.8503H221.323ZM226.946 52.8503V42.8487H228.34V52.8503H226.946ZM234.29 52.9955C233.236 52.9955 232.413 52.8068 231.823 52.4294C231.242 52.0423 230.831 51.4713 230.589 50.7165C230.357 49.9519 230.24 49.0132 230.24 47.9003C230.24 46.7777 230.361 45.8342 230.603 45.0697C230.845 44.2955 231.257 43.7052 231.837 43.2987C232.428 42.8923 233.245 42.689 234.29 42.689C235.326 42.689 236.134 42.8923 236.715 43.2987C237.305 43.6955 237.721 44.281 237.963 45.0552C238.205 45.8294 238.326 46.7777 238.326 47.9003C238.326 49.0423 238.205 49.9955 237.963 50.76C237.731 51.5149 237.32 52.0761 236.729 52.4439C236.149 52.8116 235.336 52.9955 234.29 52.9955ZM234.29 51.7907C235.007 51.7907 235.549 51.6503 235.916 51.3697C236.294 51.089 236.55 50.6632 236.686 50.0923C236.821 49.5116 236.889 48.781 236.889 47.9003C236.889 47.039 236.821 46.3132 236.686 45.7229C236.55 45.1229 236.294 44.6681 235.916 44.3584C235.539 44.0487 234.997 43.8939 234.29 43.8939C233.574 43.8939 233.028 44.0487 232.65 44.3584C232.282 44.6681 232.026 45.1181 231.881 45.7084C231.745 46.2987 231.678 47.0294 231.678 47.9003C231.678 48.7519 231.745 49.4681 231.881 50.0487C232.016 50.6294 232.268 51.0649 232.636 51.3552C233.013 51.6455 233.565 51.7907 234.29 51.7907ZM240.215 52.8503V42.8487H242.509L246.109 51.2971H246.399V42.8487H247.792V52.8503H245.542L241.884 44.3874H241.609V52.8503H240.215Z" fill="black"/>
<defs>
<radialGradient id="paint0_angular_1_139" cx="0" cy="0" r="1" gradientUnits="userSpaceOnUse" gradientTransform="translate(27.6778 30.381) rotate(90) scale(27.619 27.6778)">
<stop offset="0.0416667" stop-color="#FFEEEE"/>
<stop offset="0.223958" stop-color="#B1F57C"/>
<stop offset="0.453125" stop-color="#FFE792"/>
<stop offset="0.723958" stop-color="#79F7FF"/>
<stop offset="0.880208" stop-color="#E2A4FF"/>
<stop offset="0.942708" stop-color="#FF97E2"/>
</radialGradient>
<radialGradient id="paint1_angular_1_139" cx="0" cy="0" r="1" gradientUnits="userSpaceOnUse" gradientTransform="translate(27.6778 30.381) rotate(90) scale(27.619 27.6778)">
<stop offset="0.0416667" stop-color="#FFEEEE"/>
<stop offset="0.223958" stop-color="#B1F57C"/>
<stop offset="0.453125" stop-color="#FFE792"/>
<stop offset="0.723958" stop-color="#79F7FF"/>
<stop offset="0.880208" stop-color="#E2A4FF"/>
<stop offset="0.942708" stop-color="#FF97E2"/>
</radialGradient>
<clipPath id="clip0_1_139">
<rect width="28.4686" height="28.4082" fill="white" transform="translate(13.0479 16.177)"/>
</clipPath>
</defs>
</svg>
