<svg width="38" height="38" viewBox="0 0 38 38" fill="none" xmlns="http://www.w3.org/2000/svg">
<g clip-path="url(#clip0_1_210)">
<path d="M2.56034 5.63722L31.7429 35.9936C32.7521 37.0404 36.6403 35.4702 35.5567 34.3471L6.36353 3.99074C5.3543 2.94397 1.46613 4.51413 2.54972 5.63722H2.56034Z" fill="white"/>
<path d="M5.59865 36.31C15.7865 26.3656 25.8788 16.3341 35.8967 6.20437C36.5128 5.58285 36.3428 4.93952 35.5036 4.71054C34.6643 4.48155 33.2514 4.85229 32.6034 5.50652C22.5961 15.6362 12.4933 25.6787 2.30538 35.623C1.6786 36.2445 1.86982 36.8879 2.69845 37.1168C3.59082 37.3567 4.92937 36.9751 5.59865 36.3209V36.31Z" fill="white"/>
<path d="M1.24307 21.884C12.5464 21.9604 23.8497 21.9931 35.153 22.0149C36.0348 22.0149 37.384 21.7205 37.862 20.87C38.3401 20.0195 37.4583 19.6269 36.7466 19.6269C25.4432 19.616 14.1399 19.5724 2.83658 19.4961C1.96546 19.4961 0.605664 19.7905 0.12761 20.641C-0.350445 21.4915 0.5313 21.8731 1.24307 21.884Z" fill="white"/>
<path d="M21.417 36.5062C21.6613 24.6645 21.7994 12.812 21.8419 0.970435C21.8419 -0.774184 17.7413 0.119933 17.7413 1.49382C17.7094 13.3463 17.5607 25.1879 17.3163 37.0295C17.2845 38.7633 21.3957 37.8909 21.417 36.5062Z" fill="white"/>
</g>
<defs>
<clipPath id="clip0_1_210">
<rect width="38" height="38" fill="white"/>
</clipPath>
</defs>
</svg>
