<svg width="40" height="40" viewBox="0 0 40 40" fill="none" xmlns="http://www.w3.org/2000/svg">
<path d="M3.33325 19.9999C3.33325 27.8549 3.33325 31.7833 5.77492 34.2249C8.21492 36.6649 12.1433 36.6649 19.9999 36.6649C27.8566 36.6649 31.7849 36.6649 34.2266 34.2249C36.4882 31.9633 36.6533 28.4249 36.6666 21.6649M18.3333 3.33325C11.5749 3.34492 8.03659 3.51159 5.77492 5.77325C4.41325 7.13325 3.81159 8.95659 3.54492 11.6666" stroke="#3DE1A8" stroke-width="4" stroke-linecap="round"/>
<path d="M21.6667 18.3333L36.6667 3.33325M36.6667 3.33325H27.76M36.6667 3.33325V12.2399M35 4.99992L20 19.9999M20 19.9999H26.6667M20 19.9999V13.3333" stroke="#3DE1A8" stroke-width="4" stroke-linecap="round" stroke-linejoin="round"/>
</svg>
