<svg width="64" height="64" viewBox="0 0 64 64" fill="none" xmlns="http://www.w3.org/2000/svg">
<g clip-path="url(#clip0_1_171)">
<path fill-rule="evenodd" clip-rule="evenodd" d="M37.0934 48.7734C37.9935 49.1873 38.9179 49.5462 39.8614 49.848C44.3894 51.2774 47.3708 50.568 48.9707 48.968C50.5708 47.3707 51.2801 44.3867 49.8507 39.8614C49.5487 38.9157 49.1889 37.9896 48.7734 37.088C47.0974 39.2851 45.2736 41.3655 43.3148 43.3147C41.3666 45.2728 39.2871 47.0957 37.0907 48.7707L37.0934 48.7734ZM32.0001 45.8667C34.7067 43.9984 37.2324 41.8807 39.5441 39.5414C41.8815 37.2303 43.9974 34.7055 45.8641 32C43.9976 29.2936 41.8817 26.7679 39.5441 24.456C37.2321 22.1186 34.7065 20.0027 32.0001 18.136C29.2946 20.0027 26.7698 22.1186 24.4587 24.456C22.1194 26.7677 20.0017 29.2934 18.1334 32C20.0002 34.7055 22.1161 37.2303 24.4534 39.5414C27.0214 42.1094 29.5627 44.208 32.0001 45.8667ZM15.2267 37.0907C16.8001 39.1654 18.6241 41.2507 20.6881 43.3147C22.6354 45.2727 24.714 47.0956 26.9094 48.7707C26.0087 49.1861 25.0834 49.5459 24.1387 49.848C19.6134 51.2774 16.6294 50.568 15.0294 48.9707C13.4294 47.3707 12.7227 44.3894 14.1521 39.8614C14.4321 38.9734 14.7921 38.048 15.2294 37.088L15.2267 37.0907ZM11.8534 32C10.6374 34.1414 9.70675 36.24 9.06941 38.2534C7.34941 43.7014 7.65608 49.1334 11.2614 52.7414C14.8694 56.3494 20.3014 56.656 25.7494 54.9334C27.9246 54.2266 30.0196 53.2934 32.0001 52.1494C34.1414 53.3654 36.2401 54.296 38.2534 54.9334C43.7041 56.6534 49.1334 56.3467 52.7414 52.7414C56.3494 49.1334 56.6561 43.7014 54.9334 38.2534C54.2267 36.0773 53.2936 33.9814 52.1494 32C53.3654 29.8587 54.2961 27.76 54.9334 25.7467C56.6561 20.2987 56.3494 14.8667 52.7414 11.2587C49.1361 7.6507 43.7014 7.34403 38.2534 9.0667C36.0773 9.77333 33.9814 10.7064 32.0001 11.8507C30.0188 10.7064 27.9229 9.77333 25.7467 9.0667C20.2987 7.34403 14.8667 7.6507 11.2587 11.2587C7.65075 14.8667 7.34675 20.2987 9.06675 25.7467C9.77338 27.9228 10.7065 30.0187 11.8507 32H11.8534ZM15.2321 26.9094C16.8054 24.8347 18.6267 22.7494 20.6907 20.6854C22.6381 18.7274 24.7167 16.9045 26.9121 15.2294C26.0114 14.814 25.0861 14.4543 24.1414 14.152C19.6161 12.7227 16.6321 13.432 15.0321 15.0294C13.4321 16.6294 12.7254 19.6107 14.1547 24.1387C14.4347 25.0267 14.7947 25.952 15.2321 26.912V26.9094ZM37.0934 15.2294C37.9941 14.814 38.9194 14.4543 39.8641 14.152C44.3921 12.7227 47.3734 13.432 48.9734 15.0294C50.5734 16.6294 51.2827 19.6107 49.8534 24.1387C49.5707 25.0267 49.2134 25.952 48.7761 26.912C47.1003 24.7147 45.2765 22.6343 43.3174 20.6854C41.3692 18.7273 39.2898 16.9044 37.0934 15.2294ZM36.0001 32C35.9999 32.5253 35.8963 33.0454 35.6951 33.5307C35.4939 34.0159 35.1991 34.4568 34.8276 34.8281C34.456 35.1994 34.015 35.4939 33.5296 35.6947C33.0442 35.8956 32.524 35.9989 31.9987 35.9987C31.4735 35.9985 30.9534 35.8949 30.4681 35.6937C29.9829 35.4925 29.542 35.1977 29.1707 34.8262C28.7994 34.4546 28.5049 34.0136 28.3041 33.5282C28.1032 33.0428 27.9999 32.5227 28.0001 31.9974C28.0001 30.9365 28.4215 29.9191 29.1717 29.1689C29.9218 28.4188 30.9392 27.9974 32.0001 27.9974C33.0609 27.9974 34.0784 28.4188 34.8285 29.1689C35.5787 29.9191 36.0001 30.9365 36.0001 31.9974V32Z" fill="#3DE1A8"/>
</g>
<defs>
<clipPath id="clip0_1_171">
<rect width="64" height="64" fill="white"/>
</clipPath>
</defs>
</svg>
