<svg width="40" height="40" viewBox="0 0 40 40" fill="none" xmlns="http://www.w3.org/2000/svg">
<g clip-path="url(#clip0_1_219)">
<path d="M39.9099 1.715C40.0008 1.48784 40.0231 1.23899 39.9739 0.999302C39.9248 0.759611 39.8063 0.539621 39.6333 0.366605C39.4603 0.193589 39.2403 0.0751553 39.0006 0.0259867C38.7609 -0.023182 38.5121 -0.000923203 38.2849 0.0900035L1.91742 14.6375H1.91492L0.784921 15.0875C0.570897 15.1729 0.384635 15.3157 0.24671 15.5003C0.108786 15.6849 0.0245663 15.904 0.00335492 16.1335C-0.0178564 16.3629 0.0247659 16.5938 0.126514 16.8005C0.228262 17.0072 0.385175 17.1818 0.579921 17.305L1.60492 17.955L1.60742 17.96L14.0949 25.905L22.0399 38.3925L22.0449 38.3975L22.6949 39.4225C22.8185 39.6165 22.9932 39.7726 23.1998 39.8737C23.4063 39.9749 23.6368 40.017 23.8658 39.9955C24.0948 39.9741 24.3135 39.8899 24.4977 39.7522C24.6819 39.6144 24.8245 39.4286 24.9099 39.215L39.9099 1.715ZM35.3274 6.44L16.5924 25.175L16.0549 24.33C15.9564 24.1749 15.825 24.0435 15.6699 23.945L14.8249 23.4075L33.5599 4.6725L36.5049 3.495L35.3299 6.44H35.3274Z" fill="#028EBA"/>
</g>
<defs>
<clipPath id="clip0_1_219">
<rect width="40" height="40" fill="white"/>
</clipPath>
</defs>
</svg>
