<svg width="64" height="64" viewBox="0 0 64 64" fill="none" xmlns="http://www.w3.org/2000/svg">
<g clip-path="url(#clip0_1_178)">
<path d="M29.3328 8C30.0125 8.00075 30.6663 8.26101 31.1605 8.7276C31.6547 9.19418 31.9521 9.83188 31.992 10.5104C32.0318 11.1889 31.811 11.857 31.3748 12.3782C30.9386 12.8994 30.3198 13.2344 29.6448 13.3147L29.3328 13.3333H13.3328V50.6667H50.6662V34.6667C50.6669 33.987 50.9272 33.3332 51.3938 32.839C51.8604 32.3448 52.4981 32.0474 53.1766 32.0075C53.8551 31.9677 54.5232 32.1885 55.0444 32.6247C55.5656 33.0609 55.9006 33.6797 55.9808 34.3547L55.9995 34.6667V50.6667C55.9999 52.0122 55.4918 53.3082 54.5769 54.2948C53.6619 55.2814 52.4079 55.8857 51.0662 55.9867L50.6662 56H13.3328C11.9873 56.0004 9.00018 56 8.01279 56C7.99884 54.5 8.11376 52.4084 8.01285 51.0667L7.99951 50.6667V13.3333C7.99909 11.9878 8.50726 10.6918 9.42217 9.70521C10.3371 8.71859 11.5911 8.11425 12.9328 8.01333L13.3328 8H29.3328ZM52.6662 8C54.5062 8 54.4995 8 55.9995 8.00023V21.3333C55.9995 22.0406 55.7186 22.7189 55.2185 23.219C54.7184 23.719 54.0401 24 53.3328 24C52.6256 24 51.9473 23.719 51.4472 23.219C50.9471 22.7189 50.6662 22.0406 50.6662 21.3333V17.104L33.1035 34.6667H37.3328C38.0401 34.6667 38.7184 34.9476 39.2185 35.4477C39.7186 35.9478 39.9995 36.6261 39.9995 37.3333C39.9995 38.0406 39.7186 38.7188 39.2185 39.2189C38.7184 39.719 38.0401 40 37.3328 40H27.3328C25.4928 40 23.9995 38.5067 23.9995 36.6667V26.6667C23.9995 25.9594 24.2805 25.2811 24.7806 24.781C25.2807 24.2809 25.9589 24 26.6662 24C27.3734 24 28.0517 24.2809 28.5518 24.781C29.0519 25.2811 29.3328 25.9594 29.3328 26.6667V30.896L46.8955 13.3333H42.6662C41.9589 13.3333 41.2807 13.0524 40.7806 12.5523C40.2805 12.0522 39.9995 11.3739 39.9995 10.6667C39.9995 9.95942 40.2805 9.28115 40.7806 8.78105C41.2807 8.28095 41.9589 8 42.6662 8H52.6662Z" fill="#3DE1A8"/>
</g>
<defs>
<clipPath id="clip0_1_178">
<rect width="64" height="64" fill="white"/>
</clipPath>
</defs>
</svg>
