<svg width="40" height="40" viewBox="0 0 40 40" fill="none" xmlns="http://www.w3.org/2000/svg">
<g clip-path="url(#clip0_1_226)">
<path d="M20 0C31.0571 0 40 8.94286 40 20C40 31.0571 31.0571 40 20 40C8.94286 40 0 31.0571 0 20C0 8.94286 8.94286 0 20 0ZM16.3429 30.5429C25.2 30.5429 30.0571 23.2 30.0571 16.8286V16.2C31 15.5143 31.8286 14.6571 32.4571 13.6857C31.6 14.0571 30.6571 14.3143 29.6857 14.4571C30.6857 13.8571 31.4571 12.9143 31.8 11.8C30.8571 12.3429 29.8286 12.7429 28.7429 12.9714C27.8571 12.0286 26.6 11.4571 25.2286 11.4571C22.5714 11.4571 20.4 13.6286 20.4 16.2857C20.4 16.6571 20.4286 17.0286 20.5429 17.3714C16.5429 17.1714 12.9714 15.2571 10.6 12.3429C10.2 13.0571 9.94286 13.8857 9.94286 14.7714C9.94286 16.4286 10.8 17.9143 12.0857 18.7714C11.2857 18.7714 10.5429 18.5429 9.91429 18.1714V18.2286C9.91429 20.5714 11.5714 22.5143 13.7714 22.9714C13.3714 23.0857 12.9429 23.1429 12.5143 23.1429C12.2 23.1429 11.9143 23.1143 11.6 23.0571C12.2 24.9714 14 26.3714 16.0857 26.4C14.4286 27.6857 12.3429 28.4571 10.0857 28.4571C9.68571 28.4571 9.31429 28.4571 8.94286 28.4C11.0571 29.7714 13.6 30.5714 16.3143 30.5714" fill="#028EBA"/>
</g>
<defs>
<clipPath id="clip0_1_226">
<rect width="40" height="40" fill="white"/>
</clipPath>
</defs>
</svg>
